<svg width="64" height="64" viewBox="0 0 64 64" fill="none" xmlns="http://www.w3.org/2000/svg">
<path d="M8 50.6667V13.3333C8 11.8667 8.52222 10.6111 9.56667 9.56667C10.6111 8.52222 11.8667 8 13.3333 8H50.6667C52.1333 8 53.3889 8.52222 54.4333 9.56667C55.4778 10.6111 56 11.8667 56 13.3333V50.6667C56 52.1333 55.4778 53.3889 54.4333 54.4333C53.3889 55.4778 52.1333 56 50.6667 56H13.3333C11.8667 56 10.6111 55.4778 9.56667 54.4333C8.52222 53.3889 8 52.1333 8 50.6667ZM13.3333 24H50.6667V13.3333H13.3333V24ZM27.5333 37.3333H36.4667V29.3333H27.5333V37.3333ZM27.5333 50.6667H36.4667V42.6667H27.5333V50.6667ZM13.3333 37.3333H22.2V29.3333H13.3333V37.3333ZM41.8 37.3333H50.6667V29.3333H41.8V37.3333ZM13.3333 50.6667H22.2V42.6667H13.3333V50.6667ZM41.8 50.6667H50.6667V42.6667H41.8V50.6667Z" fill="black"/>
</svg>
