<svg width="1472" height="370" viewBox="0 0 1472 370" fill="none" xmlns="http://www.w3.org/2000/svg">
<path d="M154.229 157.379C165.396 146.076 175.889 135.983 177.551 134.945C179.212 133.906 182.384 133.049 184.6 133.039C187.339 133.029 190.078 133.947 193.159 135.923C195.646 137.526 205.918 147.175 215.988 157.369C226.047 167.562 234.768 177.151 235.372 178.673C235.966 180.196 236.47 183.372 236.49 185.731C236.51 188.897 235.755 191.065 233.58 194.049C231.969 196.267 222.332 206.33 212.151 216.412C201.98 226.495 192.414 235.236 190.893 235.821C189.373 236.416 186.543 236.9 184.6 236.9C182.656 236.9 179.826 236.255 178.306 235.468C176.785 234.672 166.182 224.579 154.752 213.034C138.026 196.146 133.827 191.337 133.253 188.504C132.86 186.558 132.85 183.392 133.243 181.446C133.797 178.603 137.895 173.904 154.229 157.379Z" fill="#34376B"/>
<path fill-rule="evenodd" clip-rule="evenodd" d="M1071.76 1.09902C1078.41 1.03853 1086.78 1.47208 1090.39 2.05686C1093.99 2.65174 1098.18 3.89189 1099.7 4.81949C1101.24 5.75717 1102.94 7.87451 1103.5 9.53813C1104.17 11.5042 1104.5 46.9243 1104.41 208.165L1120.81 186.255C1129.83 174.207 1145.14 153.648 1154.84 140.551C1164.53 127.464 1173.82 115.536 1175.48 114.034C1177.46 112.249 1181.1 110.686 1186.05 109.487C1192.34 107.974 1196.57 107.742 1211.23 108.105C1224.34 108.438 1230.01 108.993 1233.38 110.243C1235.87 111.17 1238.49 112.713 1239.19 113.671C1239.89 114.619 1240.45 116.998 1240.43 118.934C1240.4 120.87 1239.56 124.278 1238.54 126.496C1237.52 128.714 1234.92 132.858 1232.77 135.711C1230.61 138.565 1225.18 144.917 1220.69 149.827C1216.2 154.737 1209.18 162.612 1205.1 167.33C1201.01 172.049 1196.24 177.483 1194.51 179.429C1192.78 181.375 1187.15 187.717 1182 193.545C1176.84 199.373 1172.37 204.353 1172.04 204.636C1171.71 204.918 1170.66 206.158 1169.69 207.409C1167.96 209.647 1168.09 209.919 1178.32 225.557C1184.04 234.289 1191.58 245.974 1195.09 251.52C1198.6 257.065 1203.43 264.667 1205.84 268.408C1208.25 272.149 1212.34 278.501 1214.93 282.524C1217.52 286.547 1222.44 294.139 1225.86 299.412C1229.28 304.685 1234.72 313.074 1237.95 318.065C1241.18 323.056 1244.88 329.408 1246.17 332.18C1247.47 334.983 1248.54 339.238 1248.58 341.759C1248.62 344.874 1248.05 346.86 1246.8 348.091C1245.57 349.3 1241.67 350.369 1234.89 351.347C1229.35 352.154 1221.2 352.809 1216.77 352.809C1212.34 352.809 1204.18 352.204 1198.64 351.468C1193.1 350.742 1187.1 349.391 1185.3 348.474C1182.99 347.294 1179.56 343.019 1173.63 333.945C1169.01 326.877 1162.87 317.238 1160 312.519C1157.12 307.801 1152.53 300.541 1149.8 296.387C1147.06 292.223 1144.49 288.14 1144.07 287.313C1143.67 286.486 1140.64 281.495 1137.36 276.222C1134.06 270.949 1128.38 262.006 1124.73 256.339C1121.07 250.673 1115.14 241.377 1104.99 225.305L1104.49 285.296C1104.21 318.297 1103.7 345.741 1103.36 346.296C1103.03 346.85 1101.21 348.07 1099.33 349.008C1097.46 349.946 1090.72 351.287 1084.35 351.982C1075.18 352.991 1070.3 353.001 1060.94 352.043C1054.43 351.377 1047.74 350.147 1046.08 349.321C1044.42 348.494 1042.61 346.669 1042.05 345.288C1041.4 343.644 1041.05 285.246 1041.06 177.161C1041.07 86.0749 1041.41 10.4859 1041.81 9.17516C1042.23 7.86442 1044.15 5.85799 1046.08 4.70858C1048.02 3.55917 1051.87 2.30893 1054.64 1.91571C1057.41 1.53257 1065.11 1.1696 1071.76 1.09902V1.09902ZM766.641 9.4373C779.4 9.6692 781.263 9.94143 786.278 12.2907C789.319 13.7224 793.065 16.2934 794.586 18.0176C796.106 19.7316 798.04 23.5126 798.875 26.4264C799.792 29.6024 800.386 35.7528 800.376 41.8023C800.366 47.3478 799.761 54.1535 799.036 56.9262C798.311 59.6989 796.62 63.4496 795.27 65.2544C793.921 67.0592 790.789 69.6504 788.292 71.0015C785.15 72.7054 780.82 73.8044 774.194 74.5606C767.518 75.337 761.586 75.3571 754.558 74.6513C748.375 74.0262 742.836 72.8365 740.208 71.5762C737.781 70.4167 734.851 67.896 733.431 65.7484C732.061 63.6714 730.249 59.3561 729.403 56.17C728.557 52.9839 727.882 46.8537 727.892 42.5585C727.902 38.2634 728.607 32.0223 729.463 28.695C730.329 25.3678 732.051 21.0625 733.3 19.1166C734.549 17.1807 737.348 14.7609 739.523 13.7526C741.698 12.7444 744.387 11.5143 745.495 11.0203C746.602 10.5262 748.647 9.91118 750.026 9.65912C751.416 9.39697 758.888 9.29615 766.641 9.4373V9.4373ZM969.551 103.901C972.048 103.861 977.707 104.254 982.138 104.768C986.569 105.292 992.007 106.603 994.222 107.672C996.437 108.751 998.814 110.243 999.499 110.999C1000.2 111.775 1001.23 117.895 1001.84 124.984C1002.45 131.92 1002.66 141.67 1002.32 146.661C1001.98 151.652 1001.48 157.55 1001.21 159.768C1000.93 161.987 999.7 164.88 998.471 166.201C996.699 168.107 995.511 168.49 992.711 168.097C990.778 167.824 985.33 166.574 980.628 165.324C974.606 163.721 970.427 163.196 966.53 163.549C963.106 163.862 958.363 165.354 954.093 167.461C949.36 169.79 945.252 172.916 940.972 177.413C937.538 181.012 933.349 185.781 931.647 188C929.956 190.218 926.915 194.412 921.215 202.619V274.205C921.215 341.083 921.094 345.903 919.453 347.445C918.486 348.353 916.673 349.492 915.425 349.966C914.176 350.44 908.064 351.377 901.83 352.043C893.009 352.991 887.883 352.991 878.669 352.043C872.164 351.377 865.82 350.44 864.572 349.966C863.323 349.492 861.51 348.353 860.544 347.445C858.882 345.893 858.781 338.996 858.781 230.346C858.781 116.242 858.801 114.881 860.795 112.884C861.903 111.775 865.417 110.132 868.6 109.235C873.141 107.944 877.421 107.692 888.488 108.065C898.568 108.408 903.663 109.013 906.362 110.202C908.436 111.12 910.48 112.441 910.893 113.136C911.306 113.832 911.88 121.364 912.655 145.35L917.842 138.444C920.701 134.643 926.361 128.099 930.429 123.905C934.497 119.7 940.328 114.598 943.369 112.562C946.41 110.515 952.079 107.904 955.956 106.754C959.833 105.595 963.458 104.506 964.012 104.314C964.566 104.123 967.053 103.941 969.551 103.901ZM1372.35 103.931C1379.28 103.861 1389.69 104.284 1395.51 104.879C1401.33 105.464 1411.18 107.289 1417.41 108.912C1423.64 110.545 1431.35 113.278 1434.53 115.002C1437.71 116.716 1442.78 120.013 1445.79 122.312C1448.79 124.61 1453.2 128.986 1455.58 132.041C1457.96 135.096 1461.23 140.309 1462.83 143.636C1464.43 146.964 1466.46 152.176 1467.35 155.231C1468.24 158.286 1469.64 165.536 1470.48 171.363C1471.74 180.105 1472 196.146 1472 263.619C1472 339.45 1471.87 345.449 1470.26 347.556C1469.03 349.149 1466.42 350.268 1461.47 351.317C1457.59 352.144 1450.34 352.809 1445.35 352.809C1440.37 352.809 1433.52 352.255 1430.13 351.569C1426.74 350.883 1422.98 349.421 1421.79 348.312C1419.83 346.497 1419.62 345.278 1419.65 335.961C1419.67 330.275 1419.57 325.617 1419.42 325.606C1419.28 325.606 1416.67 327.986 1413.59 330.9C1410.52 333.824 1405.32 338.028 1402.01 340.236C1398.71 342.454 1394.65 345.066 1392.99 346.054C1391.33 347.042 1388.38 348.564 1386.45 349.452C1384.51 350.339 1379.53 351.962 1375.37 353.081C1370.19 354.463 1363.21 355.269 1353.21 355.622C1342.08 356.015 1336.34 355.733 1329.05 354.443C1323.79 353.505 1317.44 352.023 1314.95 351.156C1312.46 350.289 1308.37 348.665 1305.89 347.556C1303.4 346.447 1298.87 343.836 1295.82 341.749C1292.77 339.662 1288.32 335.981 1285.93 333.562C1283.53 331.142 1279.48 325.304 1276.92 320.585C1274.36 315.867 1271.48 309.515 1270.53 306.47C1269.58 303.425 1268.5 296.619 1268.1 291.346C1267.68 285.69 1267.86 278.047 1268.53 272.693C1269.14 267.702 1270.33 261.693 1271.16 259.334C1271.98 256.974 1274.33 251.984 1276.37 248.243C1278.43 244.482 1283.05 238.483 1286.69 234.833C1290.33 231.203 1296.24 226.575 1299.84 224.559C1303.45 222.532 1309.56 219.679 1313.44 218.217C1317.32 216.755 1322.97 214.89 1326.03 214.063C1329.08 213.246 1336.77 211.653 1343.15 210.534C1352.28 208.921 1360.53 208.407 1409.61 207.661L1409.6 197.83C1409.6 192.426 1409.13 185.045 1408.56 181.446C1408 177.846 1406.82 173.077 1405.94 170.859C1405.07 168.641 1403.31 165.465 1402.04 163.801C1400.79 162.138 1397.89 159.526 1395.62 158.004C1393.34 156.481 1388.87 154.485 1385.69 153.578C1381.62 152.418 1376.01 151.934 1366.81 151.964C1358.51 151.985 1350.95 152.61 1346.17 153.658C1342.02 154.576 1334.54 156.683 1329.55 158.347C1324.57 160.01 1314.83 164.124 1307.9 167.482C1300.98 170.839 1293.95 173.844 1292.29 174.156C1289.88 174.62 1288.65 174.136 1286.17 171.787C1283.75 169.498 1282.69 167.159 1281.37 161.281C1280.44 157.127 1279.71 150.997 1279.76 147.669C1279.82 144.342 1280.62 139.442 1281.55 136.79C1282.48 134.108 1285.02 130.146 1287.26 127.897C1289.47 125.659 1294.91 122.08 1299.34 119.942C1303.77 117.815 1309.88 115.153 1312.94 114.044C1315.99 112.935 1321.88 111.14 1326.03 110.051C1330.19 108.972 1336.07 107.551 1339.12 106.905C1342.17 106.26 1348.06 105.353 1352.21 104.899C1356.37 104.445 1365.43 104.012 1372.35 103.931V103.931ZM1353.72 250.643C1350.95 251.53 1346.76 253.335 1344.4 254.655C1342.05 255.986 1338.95 258.315 1337.51 259.838C1336.07 261.36 1333.81 264.879 1332.49 267.652C1331.17 270.425 1329.81 274.508 1329.45 276.726C1329.1 278.944 1329.33 283.713 1329.95 287.313C1330.73 291.739 1332.16 295.389 1334.35 298.555C1336.15 301.136 1338.74 304.161 1340.12 305.28C1341.51 306.399 1344.23 307.992 1346.17 308.819C1348.1 309.646 1352.52 310.815 1355.98 311.42C1360.88 312.277 1364.13 312.207 1370.59 311.108C1375.3 310.301 1381.07 308.527 1383.93 306.994C1386.7 305.512 1391.68 302.114 1395.01 299.452C1398.33 296.79 1402.97 292.515 1405.33 289.954L1409.61 285.296V246.983C1381.12 247.184 1369.68 247.638 1365.8 248.132C1361.93 248.626 1356.49 249.755 1353.72 250.643V250.643ZM539.212 108.347L542.656 110.938C544.912 112.622 547.802 116.827 550.994 123.038C553.683 128.27 558.295 137.083 561.245 142.628C564.186 148.173 569.13 157.47 572.221 163.297C575.313 169.125 579.764 177.635 582.12 182.212C584.466 186.79 586.621 190.54 586.893 190.54C587.175 190.54 588.102 189.068 588.958 187.253C589.813 185.449 594.526 176.253 599.43 166.826C604.324 157.399 609.772 146.964 611.534 143.636C613.307 140.309 617.878 131.789 621.715 124.701C628.039 113.005 629.056 111.664 632.711 110.152C635.763 108.902 641.13 108.388 654.865 108.055C665.952 107.783 675.237 108.055 678.781 108.741C681.963 109.356 685.246 110.545 686.082 111.372C686.918 112.209 687.593 114.135 687.582 115.657C687.582 117.291 683.001 126.718 676.435 138.595C670.313 149.686 663.113 162.844 660.454 167.834C657.786 172.825 654.12 179.631 652.318 182.958C650.505 186.286 647.907 191.055 646.537 193.545C645.168 196.045 641.865 202.166 639.217 207.156C636.558 212.147 633.245 218.278 629.308 225.305L633.134 232.363C635.239 236.245 638.32 241.911 639.972 244.966C641.623 248.021 644.574 253.466 646.517 257.065C648.471 260.665 651.19 265.655 652.569 268.156C653.939 270.656 656.658 275.647 658.601 279.247C660.535 282.846 664.482 290.106 667.362 295.379C670.242 300.652 673.404 306.318 674.391 307.982C675.378 309.646 679.879 317.924 684.4 326.383C689.455 335.83 692.627 342.928 692.627 344.783C692.627 347.234 692.003 348.08 689.355 349.24C687.552 350.026 681.329 351.216 675.509 351.892C669.295 352.597 658.712 352.89 649.83 352.587C641.12 352.285 632.812 351.468 630.194 350.652C626.831 349.593 624.978 348.201 623.024 345.237C621.574 343.049 617.093 334.903 613.075 327.139C609.057 319.375 604.526 310.755 603.015 307.982C601.505 305.209 596.953 296.589 592.905 288.825C588.857 281.062 584.376 272.542 582.946 269.88C581.516 267.228 580.126 265.071 579.844 265.081C579.572 265.101 577.427 268.862 575.091 273.439C572.765 278.017 567.176 288.805 562.685 297.395C558.204 305.986 550.742 320.515 546.11 329.66C541.478 338.804 536.866 347.102 535.859 348.08C534.852 349.058 531.086 350.52 527.481 351.317C523.674 352.174 515.457 352.789 507.844 352.809C500.644 352.819 490.453 352.164 485.187 351.337C478.4 350.278 475.268 349.331 474.392 348.07C473.717 347.092 473.153 345.499 473.133 344.531C473.113 343.563 475.631 337.887 478.722 331.928C481.824 325.969 484.704 320.636 485.126 320.081C485.549 319.527 487.261 316.572 488.923 313.528C490.584 310.483 495.7 301.176 500.292 292.858C504.884 284.54 510.009 275.234 511.681 272.189C513.363 269.144 515.789 264.94 517.078 262.863C518.367 260.786 519.405 258.739 519.394 258.325C519.374 257.912 520.21 256.44 521.257 255.049C522.305 253.667 524.872 249.352 526.947 245.47C529.031 241.588 532.042 236.033 533.643 233.119C535.436 229.842 536.282 227.15 535.859 226.061C535.486 225.093 534.197 222.714 532.989 220.768C531.791 218.822 529.082 213.841 526.967 209.677C524.852 205.523 522.587 201.43 521.922 200.603C521.257 199.776 518.337 194.553 515.427 189.008C512.507 183.462 509.798 178.472 509.385 177.917C508.972 177.362 506.596 173.057 504.108 168.339C501.621 163.62 497.643 156.139 495.257 151.702C492.87 147.266 490.605 143.183 490.202 142.628C489.809 142.073 487.09 137.083 484.16 131.537C481.229 125.992 478.49 120.325 478.067 118.934C477.645 117.553 477.493 115.506 477.725 114.397C477.997 113.157 479.789 111.735 482.428 110.686C484.774 109.759 487.604 108.761 488.711 108.468C489.819 108.186 501.631 108.035 539.212 108.347V108.347ZM766.138 108.156C780.357 108.378 784.536 108.781 787.788 110.213C790.004 111.201 792.622 112.763 793.609 113.701C795.311 115.314 795.401 121.384 795.391 345.288L793.105 347.576C791.343 349.331 788.574 350.218 781.243 351.347C775.986 352.164 768.283 352.829 764.124 352.819C759.975 352.819 753.4 352.366 749.523 351.821C745.646 351.277 741.346 350.601 739.956 350.329C738.577 350.057 736.422 348.927 732.907 345.792L732.857 115.405L735.143 113.187C736.412 111.967 739.936 110.273 742.977 109.426C747.196 108.246 752.705 107.944 766.138 108.156V108.156Z" fill="#00716A"/>
<path d="M156.081 22.4337C167.34 11.2319 177.671 1.61316 179.061 1.07879C180.451 0.534328 182.938 0.07053 184.6 0.0503649C186.261 0.0201172 189.433 0.846888 191.648 1.87531C194.186 3.05497 202.987 11.1513 215.454 23.7847C230.75 39.2816 235.523 44.7363 236.51 47.8518C237.547 51.1286 237.537 52.7419 236.48 56.422C235.362 60.3038 232.311 63.8428 215.424 80.7916C204.568 91.6908 194.095 101.562 192.152 102.711C190.208 103.871 187.157 104.808 185.355 104.818C183.552 104.818 180.833 104.344 179.313 103.76C177.792 103.185 167.34 93.5359 156.081 82.3342C144.833 71.1325 134.975 60.7172 134.179 59.1947C133.384 57.6722 132.739 54.6071 132.739 52.389C132.739 50.1708 133.384 47.1057 134.179 45.5832C134.975 44.0608 144.833 33.6455 156.081 22.4337Z" fill="#AFB3BB"/>
<path d="M21.2954 157.389C32.463 146.096 42.9659 136.004 44.6275 134.955C46.3494 133.866 49.4812 133.06 51.9282 133.049C54.2845 133.049 57.4566 133.695 58.9771 134.491C60.4977 135.288 70.8999 145.159 82.0876 156.421C93.2753 167.693 102.912 178.159 103.486 179.681C104.07 181.204 104.554 183.926 104.554 185.731C104.564 187.647 103.365 190.893 101.664 193.545C100.052 196.035 90.4255 206.33 80.2448 216.412C70.0742 226.495 60.4977 235.236 58.9771 235.821C57.4566 236.416 54.2845 236.88 51.9282 236.86C49.5718 236.839 46.289 236.043 44.6275 235.095C42.9559 234.147 32.4831 224.075 21.3357 212.702C5.24398 196.277 0.934048 191.307 0.349992 188.504C-0.0528053 186.558 -0.0729451 183.392 0.299642 181.446C0.853489 178.592 4.88146 173.985 21.2954 157.389Z" fill="#AFB3BB"/>
<path d="M286.648 156.885C297.534 145.864 307.805 136.004 309.467 134.955C311.37 133.755 314.351 133.049 317.523 133.049C320.523 133.039 323.575 133.705 325.075 134.693C326.465 135.6 335.679 144.342 345.567 154.112C355.456 163.872 364.871 173.682 366.493 175.9C368.678 178.885 369.433 181.043 369.413 184.219C369.393 186.578 368.758 189.976 367.993 191.78C367.228 193.585 357.369 204.202 346.091 215.374C328.217 233.069 324.995 235.831 321.047 236.87C317.17 237.888 315.861 237.797 311.984 236.234C308.55 234.853 302.7 229.661 287.786 214.738C271.443 198.374 267.807 194.21 266.236 190.016C264.595 185.65 264.514 184.44 265.602 180.942C266.579 177.806 271.241 172.472 286.648 156.885Z" fill="#AFB3BB"/>
<path d="M154.692 288.976C167.007 276.545 176.06 268.237 178.558 267.067C180.773 266.029 183.27 265.161 184.096 265.151C184.922 265.141 187.188 265.585 189.131 266.139C191.749 266.896 198.194 272.693 214.074 288.573C231.203 305.703 235.694 310.755 236.48 313.78C237.144 316.34 237.114 318.942 236.369 321.846C235.433 325.506 232.311 329.115 214.97 346.568C203.803 357.8 193.199 367.671 191.397 368.498C189.594 369.314 186.543 369.99 184.6 369.99C182.656 369.99 179.826 369.345 178.306 368.548C176.785 367.751 166.413 357.881 155.256 346.618C144.098 335.346 134.461 325.112 133.857 323.862C133.243 322.612 132.739 320.011 132.739 318.065C132.739 316.119 133.213 313.285 133.797 311.763C134.371 310.241 143.776 299.987 154.692 288.976Z" fill="#AFB3BB"/>
<path d="M89.5796 88.9887C100.304 78.3315 110.434 68.9244 112.096 68.0674C113.758 67.2205 116.708 66.5147 118.641 66.5147C120.575 66.5147 123.757 67.4625 125.69 68.622C127.634 69.7815 138.117 79.6523 149.002 90.5515C166.363 107.934 168.931 110.918 169.948 114.901C170.834 118.349 170.824 120.285 169.928 122.967C169.112 125.397 162.405 132.898 148.479 146.994C137.331 158.266 126.959 168.127 125.439 168.923C123.918 169.71 120.857 170.355 118.641 170.355C116.426 170.355 113.365 169.71 111.844 168.923C110.324 168.127 99.72 158.034 88.2806 146.49C69.9835 127.998 67.4056 125.004 66.7914 121.455C66.2576 118.45 66.59 116.272 68.0803 112.884C69.5304 109.618 75.5623 102.913 89.5796 88.9887Z" fill="#008A38"/>
<path d="M222.543 88.9787C233.801 77.7769 244.143 68.1582 245.523 67.6238C246.912 67.0793 249.289 66.6055 250.809 66.5651C252.33 66.5349 254.827 66.9785 256.348 67.5633C257.868 68.138 268.321 77.787 279.579 88.9887C290.827 100.19 300.686 110.606 301.481 112.128C302.277 113.651 302.921 116.494 302.921 118.43C302.921 120.366 302.438 123.209 301.844 124.731C301.26 126.254 292.529 135.832 282.459 146.016C272.389 156.209 262.339 165.858 260.124 167.471C256.952 169.79 255.029 170.416 251.061 170.416C247.093 170.416 245.17 169.79 241.998 167.471C239.783 165.858 229.985 156.431 220.217 146.53C210.449 136.619 201.728 127.04 200.832 125.236C199.936 123.431 199.201 120.366 199.201 118.43C199.201 116.494 199.845 113.651 200.641 112.128C201.436 110.606 211.295 100.19 222.543 88.9787Z" fill="#008A38"/>
<path d="M87.8174 223.924C98.9547 212.621 109.427 202.529 111.089 201.49C112.751 200.452 115.812 199.605 117.886 199.594C119.961 199.594 122.911 200.078 124.432 200.673C125.952 201.258 135.519 210 145.689 220.082C155.87 230.165 165.507 240.227 167.118 242.445C169.434 245.621 170.059 247.547 170.059 251.52C170.059 255.492 169.434 257.418 167.118 260.594C165.507 262.812 156.092 272.623 146.203 282.403C136.304 292.183 126.738 300.914 124.935 301.812C123.133 302.709 120.303 303.445 118.641 303.445C116.98 303.445 114.15 302.779 112.348 301.953C110.545 301.136 99.7402 291.043 88.3309 279.519C71.4537 262.479 67.456 257.922 66.9223 255.049C66.5497 253.103 66.5497 249.937 66.9122 247.991C67.4358 245.127 71.353 240.61 87.8174 223.924Z" fill="#008A38"/>
<path d="M221.727 222.169C231.767 212.127 241.565 202.942 243.509 201.762C245.533 200.522 248.745 199.594 251.061 199.584C253.81 199.574 256.529 200.492 259.62 202.478C262.118 204.091 272.137 213.508 281.905 223.42C291.673 233.331 300.394 242.909 301.29 244.714C302.186 246.519 302.921 249.574 302.921 251.52C302.921 253.466 302.418 256.067 301.803 257.317C301.199 258.567 291.562 268.801 280.405 280.074C269.247 291.336 258.875 301.207 257.355 302.003C255.834 302.8 253.005 303.445 251.061 303.445C249.118 303.445 246.288 302.8 244.767 302.003C243.247 301.207 232.875 291.336 221.717 280.074C210.56 268.801 200.923 258.567 200.319 257.317C199.704 256.067 199.201 253.345 199.201 251.268C199.211 249.191 200.168 245.904 201.336 243.958C202.514 242.012 211.688 232.212 221.727 222.169Z" fill="#008A38"/>
<path d="M21.8291 23.7848C34.2957 11.1513 43.0968 3.05502 45.6344 1.87536C47.8498 0.846936 50.7902 0 52.1799 0C53.5595 0 56.51 0.846936 58.7254 1.88544C61.2529 3.0651 70.1447 11.2521 82.5508 23.7949C99.5388 40.9856 102.519 44.4641 103.597 48.356C104.614 51.9857 104.614 53.6997 103.607 56.9262C102.61 60.1022 97.9075 65.3955 81.5438 81.7898C63.5287 99.8275 60.1351 102.782 56.2079 103.881C52.5827 104.889 50.8708 104.889 47.6484 103.881C44.4764 102.883 39.1897 98.174 22.816 81.7898C4.80086 63.7521 1.85037 60.3542 0.752746 56.422C-0.254247 52.7822 -0.254247 51.0884 0.772886 47.8519C1.75974 44.7363 6.53289 39.2817 21.8291 23.7848Z" fill="#58B132"/>
<path d="M292.851 18.3704C301.985 9.44736 310.595 1.67371 311.984 1.10908C313.364 0.544459 315.75 0.0604954 317.271 0.0201651C318.791 -0.0100826 321.289 0.43355 322.809 1.01834C324.33 1.59305 334.782 11.2421 346.041 22.4438C357.289 33.6455 367.147 44.0608 367.943 45.5833C368.738 47.1058 369.383 50.1709 369.383 52.389C369.383 54.6072 368.738 57.6723 367.943 59.1947C367.147 60.7172 357.52 70.8804 346.544 81.7797C335.568 92.679 325.115 102.318 323.313 103.205C321.51 104.092 318.902 104.818 317.523 104.818C316.133 104.818 313.535 104.143 311.732 103.316C309.93 102.499 299.095 92.4067 287.655 80.8824C272.359 65.4863 266.589 59.0233 265.834 56.422C265.189 54.1736 265.159 51.5118 265.743 49.1122C266.277 46.9444 268.714 43.0425 271.453 39.9673C274.081 37.0131 283.718 27.2935 292.851 18.3704Z" fill="#58B132"/>
<path d="M22.9771 288.321C37.9309 273.348 45.0806 266.875 47.3967 266.23C49.1992 265.726 51.1226 265.272 51.6764 265.232C52.2302 265.182 54.3852 265.595 56.4596 266.15C59.4403 266.936 64.576 271.453 80.7986 287.565C94.0708 300.743 101.925 309.323 102.952 311.763C103.829 313.84 104.544 316.673 104.544 318.065C104.544 319.446 103.678 322.289 102.62 324.366C101.553 326.443 91.4728 337.292 80.2146 348.474C62.2196 366.32 59.2389 368.881 55.7044 369.506C53.489 369.889 50.0854 369.899 48.1519 369.516C45.2921 368.941 40.5894 364.777 23.3094 347.475C4.76058 328.913 1.82016 325.536 0.742676 321.594C-0.213967 318.105 -0.234107 316.189 0.662117 313.275C1.54827 310.402 6.93568 304.383 22.9771 288.321Z" fill="#58B132"/>
<path d="M287.152 289.47C299.91 276.565 308.953 268.237 311.481 267.057C313.696 266.018 315.962 265.172 316.516 265.161C317.069 265.151 319.335 265.645 321.551 266.26C324.823 267.158 329.425 271.201 345.99 287.676C357.218 298.847 367.077 309.454 367.892 311.259C368.718 313.064 369.383 316.119 369.383 318.065C369.383 320 368.879 322.612 368.265 323.862C367.661 325.112 358.024 335.346 346.866 346.618C335.709 357.881 325.337 367.752 323.816 368.548C322.296 369.345 319.345 370 317.271 370C314.814 370.01 311.914 369.002 308.963 367.116C306.466 365.523 296.013 355.652 285.722 345.177C269.278 328.43 266.891 325.586 265.934 321.594C265.189 318.498 265.169 315.937 265.854 313.527C266.599 310.936 272.228 304.574 287.152 289.47Z" fill="#58B132"/>
</svg>
